<svg xmlns="http://www.w3.org/2000/svg" width="256" height="228" preserveAspectRatio="xMidYMid">
  <path fill="#3e7c88" d="M210.5 73.8c-2.7-1-5.4-1.8-8.3-2.6.5-2 1-3.7 1.3-5.6 6.3-30.3 2.2-54.7-11.8-62.7-13.3-7.8-35 .2-57.2 19.4-2 2-4.3 3.8-6.4 6-1.3-1.5-2.7-2.8-4-4C100.7 3.8 77.5-4.8 63.6 3.2 50.3 11 46.4 34 52 62.6c.5 2.8 1.2 5.6 2 8.5l-9.6 3C17.4 83.5 0 98.3 0 113.7c0 15.8 18.6 31.7 46.8 41.4 2.2 1 4.6 1.6 7 2.3-.8 3-1.5 6-2 9-5.4 28.3-1.2 50.7 12 58.4 13.8 8 37-.3 59.3-20 2-1.4 3.7-3 5.5-4.8l7 6.2c21.6 18.7 43 26.3 56.4 18.6 13.7-8 18-32 12.3-61.3l-1.5-6.8 4.8-1.5c29.3-9.7 48.4-25.5 48.4-41.5 0-15.4-18-30.4-45.5-40zm-6.4 71l-4.2 1.4c-3.2-10.3-7.6-21.2-13-32.5 5.2-11 9.4-21.7 12.5-32 2.6.8 5.2 1.6 7.6 2.5 23.6 8 38 20.2 38 29.5 0 10-15.5 22.7-41 31zm-10.4 20.8c2.6 13 3 24.7 1.2 33.8-1.5 8.2-4.6 13.7-8.3 16-8 4.6-25.4-1.5-44-17.5l-6.4-6c7.3-7.8 14.5-17 21.5-27.2 12.4-1 24-3 34.7-5.4l1.4 6.2zm-106.3 49c-8 2.7-14.2 2.8-18 .6-8-4.7-11.4-22.6-6.8-46.8.5-2.7 1-5.6 1.8-8.5 10.5 2.3 22 4 34.5 5 7 10 14.5 19 22 27-1.6 1.7-3.2 3.2-5 4.6-9.8 8.7-19.8 14.8-28.5 18zm-37-70c-12.4-4-22.7-9.7-29.8-15.7-6.4-5.6-9.6-11-9.6-15.3 0-9.4 13.8-21.2 37-29.3 2.8-1 5.8-2 8.8-2.8C60 92 64.2 103 69.3 114c-5 11-9.4 22.2-12.6 32.7l-6.4-2zm12.4-84c-4.8-24.7-1.6-43.2 6.5-48 8.5-5 27.5 2.2 47.4 20 1.3 1 2.6 2.3 4 3.5-7.6 8-15 17.2-22 27-12 1.2-23.5 3-34 5.4-.8-2.7-1.4-5.3-2-8zm110.5 27.2L165.4 75c8 1 16 2.4 23.3 4-2.2 7-5 14.5-8.2 22L173.2 88zm-45-44c5 5.6 10 11.7 15 18.3-5-.2-10-.3-15.2-.3-5 0-10 0-15 .4 5-6.5 10-12.6 15-18zM82.7 88c-2.5 4.4-5 8.8-7.2 13.3-3.2-7.5-6-15-8.2-22 7.3-1.7 15-3 23.2-4-2.6 4-5.3 8.4-7.8 12.8zm8 65.4c-8.3-1-16.2-2.2-23.5-3.8 2.3-7.3 5-15 8.3-22.6l7.2 13.2c2.6 4.5 5.3 9 8 13.2zm37.6 31c-5.2-5.6-10.3-11.8-15.4-18.4l15 .3c5.2 0 10.4 0 15.5-.3-5 6.8-10 13-15 18.5zm52.2-57.8c3.4 7.8 6.3 15.3 8.6 22.5-7.4 1.6-15.4 3-24 4 2.8-4.2 5.4-8.6 8-13l7.4-13.6zm-17 8c-4 7-8 13.7-12.2 20-7.6.5-15.4.7-23.4.7-8 0-15.7 0-23.2-.6-4.3-6.3-8.5-13-12.5-19.8-4-7-7.6-13.8-11-20.7 3.4-7 7-14 11-20.7 4-7 8-13.5 12.4-19.8 7.6-.5 15.4-.8 23.3-.8 8 0 15.7.3 23.4.8 4.2 6.3 8.3 13 12.3 19.7 4 7 7.7 13.8 11 20.6-3.3 6.8-7 13.8-11 20.7zm22.7-122c8.6 5 12 25 6.5 51l-1 5c-10.8-2.4-22.3-4.2-34.4-5.3-7-10-14.3-19-21.6-27l6-5.3c18.8-16.5 36.4-23 44.5-18.3zM128 90.8c12.6 0 23 10.2 23 23 0 12.5-10.4 22.7-23 22.7s-23-10.2-23-22.8c0-12.7 10.4-23 23-23z"/>
</svg>
